<?xml version="1.0" standalone="no"?><svg xmlns="http://www.w3.org/2000/svg" viewBox="0 0 1440 320"><path fill="#ffffff" fill-opacity="1" d="M0,128L30,144C60,160,120,192,180,176C240,160,300,96,360,106.7C420,117,480,203,540,224C600,245,660,203,720,197.3C780,192,840,224,900,245.3C960,267,1020,277,1080,234.7C1140,192,1200,96,1260,69.3C1320,43,1380,85,1410,106.7L1440,128L1440,320L1410,320C1380,320,1320,320,1260,320C1200,320,1140,320,1080,320C1020,320,960,320,900,320C840,320,780,320,720,320C660,320,600,320,540,320C480,320,420,320,360,320C300,320,240,320,180,320C120,320,60,320,30,320L0,320Z"></path></svg>